<?xml version="1.0" standalone="no"?>
<!DOCTYPE svg PUBLIC "-//W3C//DTD SVG 20010904//EN"
 "http://www.w3.org/TR/2001/REC-SVG-20010904/DTD/svg10.dtd">
<svg version="1.0" xmlns="http://www.w3.org/2000/svg"
 width="1280.000000pt" height="1280.000000pt" viewBox="0 0 1280.000000 1280.000000"
 preserveAspectRatio="xMidYMid meet">
<metadata>
Created by potrace 1.15, written by Peter Selinger 2001-2017
</metadata>
<g transform="translate(0.000000,1280.000000) scale(0.100000,-0.100000)"
fill="#000000" stroke="none">
<path d="M3273 11715 c-378 -68 -694 -342 -815 -705 -44 -131 -52 -187 -52
-350 1 -134 5 -168 27 -253 81 -306 282 -556 552 -690 173 -85 287 -112 485
-111 160 0 251 17 397 74 214 82 422 267 533 473 89 164 130 327 130 512 0
596 -473 1069 -1067 1064 -65 0 -150 -7 -190 -14z"/>
<path d="M1070 9059 c0 -5 22 -119 50 -252 27 -133 121 -597 210 -1032 89
-434 183 -898 210 -1030 27 -132 121 -595 210 -1030 89 -434 183 -898 210
-1030 100 -487 169 -832 185 -919 9 -49 32 -145 51 -213 258 -943 1045 -1684
2009 -1893 268 -57 125 -54 2313 -57 l2012 -4 0 536 0 535 -1997 3 -1998 3
-93 22 c-295 69 -528 187 -743 375 -249 218 -431 535 -500 872 -11 55 -225
1083 -475 2285 -250 1202 -485 2331 -523 2510 l-67 325 -532 3 c-374 1 -532
-1 -532 -9z"/>
<path d="M3975 9056 c-508 -70 -915 -454 -1020 -962 -22 -107 -29 -266 -16
-359 6 -44 61 -298 122 -565 61 -267 146 -640 189 -830 43 -190 120 -525 170
-745 50 -220 133 -584 184 -810 105 -458 124 -523 201 -680 94 -192 184 -315
348 -472 208 -198 469 -334 782 -405 l100 -22 1935 -6 1935 -5 565 -445 c311
-244 767 -603 1015 -798 l449 -353 400 400 c220 220 398 402 396 404 -3 2
-171 134 -375 292 -718 560 -1497 1167 -2094 1634 l-605 471 -1303 0 c-717 0
-1303 3 -1303 6 0 4 -122 493 -271 1086 -149 594 -269 1082 -265 1085 3 3 11
1 18 -4 28 -22 327 -177 476 -247 703 -328 1333 -469 1912 -427 96 7 209 18
250 24 l75 12 3 569 2 569 -32 -7 c-210 -43 -625 -46 -878 -7 -507 79 -968
257 -1392 537 -53 35 -332 246 -619 468 -404 313 -544 416 -618 454 -157 82
-283 120 -461 142 -104 12 -159 11 -275 -4z"/>
</g>
</svg>
